<svg width="35" height="35" viewBox="0 0 35 35" fill="none" xmlns="http://www.w3.org/2000/svg">
<circle cx="17.5" cy="17.5" r="17" stroke="#6FBFB1"/>
<path d="M26.6666 27.75V25.5833C26.6666 24.4341 26.21 23.3319 25.3974 22.5192C24.5847 21.7065 23.4825 21.25 22.3333 21.25H13.6666C12.5173 21.25 11.4151 21.7065 10.6025 22.5192C9.7898 23.3319 9.33325 24.4341 9.33325 25.5833V27.75" stroke="#6FBFB1" stroke-width="2" stroke-linecap="round" stroke-linejoin="round"/>
<path d="M18.0001 16.9167C20.3933 16.9167 22.3334 14.9766 22.3334 12.5833C22.3334 10.1901 20.3933 8.25 18.0001 8.25C15.6068 8.25 13.6667 10.1901 13.6667 12.5833C13.6667 14.9766 15.6068 16.9167 18.0001 16.9167Z" stroke="#6FBFB1" stroke-width="2" stroke-linecap="round" stroke-linejoin="round"/>
</svg>
