<svg width="24" height="24" viewBox="0 0 24 24" fill="none" xmlns="http://www.w3.org/2000/svg">
<path d="M12.222 5.97727C13.6434 5.95336 15.0169 6.49068 16.0448 7.47272L18.9129 4.60454C17.1029 2.90454 14.7051 1.97115 12.222 1.99999C8.44107 1.99854 4.98285 4.13046 3.28564 7.50909L6.62656 10.1C7.41436 7.66783 9.66566 6.00908 12.222 5.97727Z" fill="white"/>
<path d="M3.28532 7.50908C1.86713 10.3351 1.86713 13.6649 3.28532 16.4909L6.62619 13.9C6.20807 12.6678 6.20807 11.3322 6.62619 10.1L3.28532 7.50908Z" fill="white"/>
<path d="M15.6084 17.0682C12.8044 18.868 9.07225 18.054 7.27244 15.2499C7.00194 14.8285 6.78496 14.375 6.62651 13.9L3.28564 16.4909C4.98282 19.8695 8.44106 22.0015 12.222 22C14.6563 22.066 17.0238 21.1993 18.8402 19.5773L15.6084 17.0682Z" fill="white"/>
<path d="M21.6398 10.1818H12.2217V14.05H17.6034C17.3785 15.2864 16.6575 16.3769 15.608 17.0682C15.6049 17.0703 15.6016 17.0718 15.5984 17.0738C15.6016 17.0718 15.6049 17.0703 15.608 17.0682L18.8398 19.5773L18.8398 19.5773C20.8301 17.6603 21.9138 14.9891 21.8217 12.2273C21.8222 11.5414 21.7614 10.8569 21.6398 10.1818Z" fill="white"/>
</svg>
